<?xml version="1.0" standalone="no"?>
<!DOCTYPE svg PUBLIC "-//W3C//DTD SVG 20010904//EN"
 "http://www.w3.org/TR/2001/REC-SVG-20010904/DTD/svg10.dtd">
<svg version="1.0" xmlns="http://www.w3.org/2000/svg"
 width="352.000000pt" height="241.000000pt" viewBox="0 0 352.000000 241.000000"
 preserveAspectRatio="xMidYMid meet">

<g transform="translate(0.000000,241.000000) scale(0.100000,-0.100000)"
fill="#000000" stroke="none">
<path d="M740 2003 c-19 -9 -74 -38 -121 -65 -84 -47 -89 -48 -204 -58 -75 -6
-135 -6 -168 1 -51 9 -87 5 -87 -11 0 -5 5 -12 10 -15 6 -4 8 -11 4 -16 -10
-17 48 -53 116 -72 36 -10 84 -26 106 -37 23 -10 79 -31 125 -46 46 -15 93
-33 104 -40 11 -8 27 -14 37 -14 10 0 18 -4 18 -9 0 -5 14 -14 31 -21 17 -7
48 -36 68 -64 54 -72 238 -246 261 -246 29 0 149 -106 156 -138 3 -15 8 -34
11 -42 3 -8 8 -23 10 -33 7 -37 34 -79 48 -73 19 7 35 -16 29 -40 -3 -12 3
-27 15 -38 12 -11 21 -25 21 -32 0 -16 57 -64 77 -64 8 0 52 -20 99 -45 46
-25 84 -42 84 -39 0 4 6 2 13 -5 10 -8 16 -8 25 1 18 18 57 -21 58 -59 1 -22
-3 -33 -12 -33 -8 0 -14 -6 -14 -12 0 -10 -2 -10 -8 0 -9 13 -32 -47 -32 -82
0 -9 -7 -28 -16 -41 -9 -13 -12 -29 -8 -36 4 -8 11 -2 20 17 7 16 13 23 13 17
1 -7 6 -13 12 -13 5 0 8 4 4 9 -3 6 0 13 7 18 19 12 62 109 54 122 -4 6 -2 11
3 11 6 0 11 -17 12 -37 1 -76 9 -209 15 -232 3 -13 -3 -46 -13 -74 l-18 -51
-6 35 c-3 19 -1 44 3 57 4 13 4 21 0 18 -5 -3 -15 4 -22 15 -8 10 -20 19 -28
19 -7 0 -16 8 -19 17 -4 10 -16 26 -28 35 -19 16 -22 15 -63 -33 -24 -27 -49
-49 -55 -49 -7 0 0 10 16 21 15 11 27 26 27 32 0 6 -22 -11 -50 -38 -52 -51
-58 -63 -39 -82 13 -13 49 -5 49 11 0 16 42 56 58 56 7 0 13 6 13 13 1 6 5 -4
9 -23 l7 -35 2 32 c1 36 16 51 25 27 9 -23 7 -36 -4 -29 -5 3 -10 -3 -10 -14
0 -12 -7 -21 -15 -21 -11 0 -15 -10 -14 -37 1 -38 1 -38 9 -8 8 30 8 30 9 -7
2 -70 31 -34 31 40 0 39 17 42 25 4 17 -81 31 -117 52 -140 12 -14 23 -19 23
-13 0 8 8 10 20 6 22 -7 26 5 8 23 -9 9 -6 23 12 63 23 49 25 50 40 31 13 -16
18 -17 28 -5 17 17 9 41 -25 77 -25 27 -27 28 -34 10 -7 -17 -8 -17 -8 4 -1
12 6 25 14 28 9 4 15 11 14 18 -1 6 1 18 5 26 3 8 2 62 -3 120 -5 58 -7 108
-4 113 2 4 41 7 86 6 45 0 116 6 157 15 41 9 85 16 96 16 12 0 24 6 27 14 7
17 68 27 84 14 7 -6 19 -6 30 0 10 5 24 7 31 5 6 -3 12 -1 12 4 0 4 10 9 23 9
51 3 191 22 220 30 10 3 14 11 11 17 -5 8 -2 8 7 0 18 -18 39 -16 39 2 0 17
25 20 35 5 10 -16 118 -2 132 17 17 22 77 29 182 22 98 -7 189 -23 244 -44 40
-16 95 -19 114 -7 18 11 -6 37 -48 51 -19 6 -59 27 -89 46 -30 19 -75 43 -99
52 -25 10 -53 25 -63 35 -10 10 -30 20 -45 23 -62 14 -111 37 -157 75 -106 88
-271 156 -498 205 -123 27 -140 34 -323 135 -49 27 -103 54 -120 59 -16 5 -66
23 -110 39 -44 16 -95 33 -114 37 -18 4 -41 15 -51 25 -9 9 -49 29 -88 44 -53
21 -80 38 -104 67 -33 39 -56 88 -57 121 -1 9 -15 38 -33 64 -36 54 -95 85
-216 114 -103 25 -301 26 -352 3z m321 -69 c30 -9 68 -24 84 -34 34 -21 75
-86 75 -119 0 -66 81 -166 163 -201 28 -13 63 -31 76 -41 13 -11 34 -19 47
-19 13 0 45 -11 71 -24 27 -14 86 -37 133 -52 47 -15 94 -33 105 -41 11 -7 27
-13 36 -13 9 0 35 -14 59 -31 68 -49 188 -103 275 -123 102 -23 273 -80 351
-117 33 -15 81 -47 107 -69 25 -23 71 -56 102 -74 l55 -34 -133 3 c-139 3
-200 -2 -192 -16 3 -4 -19 -7 -49 -6 -40 2 -59 -3 -75 -17 -11 -10 -27 -16
-34 -13 -8 3 -18 2 -23 -3 -5 -4 -25 -10 -44 -13 -47 -7 -101 -27 -121 -44
-10 -8 -18 -10 -20 -4 -4 11 -102 -8 -116 -23 -5 -5 2 -6 17 -3 23 5 23 5 7
-7 -19 -15 -61 -10 -51 5 3 5 -2 9 -11 9 -10 0 -15 -6 -12 -13 4 -10 -15 -14
-81 -16 -48 -1 -91 -5 -96 -8 -5 -3 -6 -1 -2 5 4 7 1 12 -8 12 -9 0 -16 -4
-16 -10 0 -5 -7 -7 -15 -4 -22 9 -18 22 8 27 12 2 -4 3 -35 3 -44 -1 -63 4
-85 21 -15 13 -57 38 -93 58 -52 28 -79 52 -132 119 -39 48 -77 109 -89 140
-14 40 -37 72 -80 113 -62 61 -78 77 -138 139 -20 22 -54 53 -76 69 -21 17
-58 47 -81 68 -23 20 -45 37 -50 37 -5 1 -27 23 -49 51 -46 59 -123 108 -220
139 -38 13 -73 25 -77 27 -10 5 14 32 27 30 6 -1 9 9 7 23 l-3 25 16 -22 15
-21 40 19 c23 11 38 24 35 29 -3 6 1 7 9 4 9 -4 18 1 22 10 3 9 12 16 19 16 8
0 20 6 28 14 23 24 76 34 173 35 56 1 111 -5 145 -15z m9 -534 c6 -11 8 -20 5
-20 -3 0 -15 9 -27 20 -18 17 -19 20 -5 20 9 0 21 -9 27 -20z m1397 -526 c-3
-3 -12 -4 -19 -1 -8 3 -5 6 6 6 11 1 17 -2 13 -5z m-193 -79 c-7 -16 -24 -21
-24 -6 0 8 7 13 27 20 1 1 0 -6 -3 -14z m146 -5 c0 -5 -2 -10 -4 -10 -3 0 -8
5 -11 10 -3 6 -1 10 4 10 6 0 11 -4 11 -10z m-540 -36 c0 -2 -7 -4 -15 -4 -8
0 -15 4 -15 10 0 5 7 7 15 4 8 -4 15 -8 15 -10z m-62 -12 c6 -18 -15 -14 -22
4 -4 10 -1 14 6 12 6 -2 14 -10 16 -16z m117 -11 c-3 -6 -11 -11 -17 -11 -6 0
-6 6 2 15 14 17 26 13 15 -4z m-192 -66 c-7 -21 -13 -19 -13 6 0 11 4 18 10
14 5 -3 7 -12 3 -20z m-280 -315 c-10 -17 -19 -26 -21 -20 -4 10 25 50 35 50
2 0 -4 -14 -14 -30z m272 -47 c-9 -15 -13 -19 -10 -8 4 11 10 29 13 40 3 11 7
14 9 8 3 -7 -3 -24 -12 -40z"/>
<path d="M913 1789 c-17 -17 9 -39 46 -39 39 0 42 26 5 40 -32 13 -38 12 -51
-1z"/>
<path d="M1818 803 c7 -3 16 -2 19 1 4 3 -2 6 -13 5 -11 0 -14 -3 -6 -6z"/>
<path d="M1895 800 c-3 -5 1 -10 10 -10 9 0 13 5 10 10 -3 6 -8 10 -10 10 -2
0 -7 -4 -10 -10z"/>
<path d="M1656 694 c-4 -14 -5 -28 -3 -31 3 -2 8 8 11 23 4 14 5 28 3 31 -3 2
-8 -8 -11 -23z"/>
<path d="M1430 279 c0 -5 5 -7 10 -4 6 3 10 8 10 11 0 2 -4 4 -10 4 -5 0 -10
-5 -10 -11z"/>
<path d="M1480 279 c0 -5 5 -7 10 -4 6 3 10 8 10 11 0 2 -4 4 -10 4 -5 0 -10
-5 -10 -11z"/>
<path d="M1825 270 c-3 -5 -5 -10 -3 -11 42 -10 50 -9 38 6 -14 17 -26 19 -35
5z"/>
<path d="M1590 215 c0 -8 4 -15 10 -15 5 0 7 7 4 15 -4 8 -8 15 -10 15 -2 0
-4 -7 -4 -15z"/>
</g>
</svg>
